# MagicaVoxel @ Ephtracy

# material
mtllib North Gate.mtl
usemtl palette

# normals
vn -1 0 0
vn 1 0 0
vn 0 0 1
vn 0 0 -1
vn 0 -1 0
vn 0 1 0

# texcoords
vt 0.00585938 0.5
vt 0.0449219 0.5
vt 0.666016 0.5

# verts
v -20 0 7
v -20 0 -4
v -20 1 7
v -20 1 -4
v -19 6 7
v -19 6 -4
v -19 7 7
v -19 7 -4
v -18 1 5
v -18 1 3
v -18 1 -0
v -18 1 -2
v -18 5 5
v -18 5 3
v -18 5 -0
v -18 5 -2
v -18 6 5
v -18 6 3
v -18 6 -0
v -18 6 -2
v -14 1 5
v -14 1 3
v -14 1 -0
v -14 1 -2
v -14 5 5
v -14 5 3
v -14 5 -0
v -14 5 -2
v -14 6 5
v -14 6 3
v -14 6 -0
v -14 6 -2
v -3 0 7
v -3 0 -4
v -3 1 7
v -3 1 -4
v -3 6 7
v -3 6 -4
v -3 7 7
v -3 7 -4
v -1 1 5
v -1 1 3
v -1 1 -0
v -1 1 -2
v -1 5 5
v -1 5 3
v -1 5 -0
v -1 5 -2
v -1 6 5
v -1 6 3
v -1 6 -0
v -1 6 -2
v 5 1 5
v 5 1 -2
v 5 2 5
v 5 2 -2
v 5 4 5
v 5 4 -2
v 5 6 5
v 5 6 -2
v 6 5 6
v 6 5 5
v 6 6 6
v 6 6 5
v 7 2 5
v 7 2 -2
v 7 4 5
v 7 4 -2
v 8 5 6
v 8 5 5
v 8 6 6
v 8 6 5
v 10 5 6
v 10 5 5
v 10 6 6
v 10 6 5
v 12 5 6
v 12 5 5
v 12 6 6
v 12 6 5
v -16 1 5
v -16 1 3
v -16 1 -0
v -16 1 -2
v -16 5 5
v -16 5 3
v -16 5 -0
v -16 5 -2
v -16 6 5
v -16 6 3
v -16 6 -0
v -16 6 -2
v -12 1 5
v -12 1 3
v -12 1 -0
v -12 1 -2
v -12 5 5
v -12 5 3
v -12 5 -0
v -12 5 -2
v -12 6 5
v -12 6 3
v -12 6 -0
v -12 6 -2
v -11 0 7
v -11 0 -4
v -11 1 7
v -11 1 -4
v -11 6 7
v -11 6 -4
v -11 7 7
v -11 7 -4
v 1 1 5
v 1 1 3
v 1 1 -0
v 1 1 -2
v 1 5 5
v 1 5 3
v 1 5 -0
v 1 5 -2
v 1 6 5
v 1 6 3
v 1 6 -0
v 1 6 -2
v 7 5 6
v 7 5 5
v 7 6 6
v 7 6 5
v 9 5 6
v 9 5 5
v 9 6 6
v 9 6 5
v 11 5 6
v 11 5 5
v 11 6 6
v 11 6 5
v 13 0 7
v 13 0 -4
v 13 1 7
v 13 1 5
v 13 1 -2
v 13 1 -4
v 13 5 6
v 13 5 5
v 13 6 7
v 13 6 6
v 13 6 5
v 13 6 -2
v 13 6 -4
v 13 7 7
v 13 7 -4
v -20 0 7
v -20 1 7
v -19 6 7
v -19 7 7
v -11 0 7
v -11 1 7
v -11 6 7
v -11 7 7
v -3 0 7
v -3 1 7
v -3 6 7
v -3 7 7
v 13 0 7
v 13 1 7
v 13 6 7
v 13 7 7
v 6 5 6
v 6 6 6
v 7 5 6
v 7 6 6
v 8 5 6
v 8 6 6
v 9 5 6
v 9 6 6
v 10 5 6
v 10 6 6
v 11 5 6
v 11 6 6
v 12 5 6
v 12 6 6
v 13 5 6
v 13 6 6
v -18 1 5
v -18 5 5
v -18 6 5
v -16 1 5
v -16 5 5
v -16 6 5
v -14 1 5
v -14 5 5
v -14 6 5
v -12 1 5
v -12 5 5
v -12 6 5
v -1 1 5
v -1 5 5
v -1 6 5
v 1 1 5
v 1 5 5
v 1 6 5
v 5 1 5
v 5 2 5
v 5 4 5
v 5 6 5
v 6 5 5
v 6 6 5
v 7 2 5
v 7 4 5
v 7 5 5
v 7 6 5
v 8 5 5
v 8 6 5
v 9 5 5
v 9 6 5
v 10 5 5
v 10 6 5
v 11 5 5
v 11 6 5
v 12 5 5
v 12 6 5
v 13 1 5
v 13 5 5
v -18 1 -0
v -18 5 -0
v -18 6 -0
v -16 1 -0
v -16 5 -0
v -16 6 -0
v -14 1 -0
v -14 5 -0
v -14 6 -0
v -12 1 -0
v -12 5 -0
v -12 6 -0
v -1 1 -0
v -1 5 -0
v -1 6 -0
v 1 1 -0
v 1 5 -0
v 1 6 -0
v -18 1 3
v -18 5 3
v -18 6 3
v -16 1 3
v -16 5 3
v -16 6 3
v -14 1 3
v -14 5 3
v -14 6 3
v -12 1 3
v -12 5 3
v -12 6 3
v -1 1 3
v -1 5 3
v -1 6 3
v 1 1 3
v 1 5 3
v 1 6 3
v -18 1 -2
v -18 5 -2
v -18 6 -2
v -16 1 -2
v -16 5 -2
v -16 6 -2
v -14 1 -2
v -14 5 -2
v -14 6 -2
v -12 1 -2
v -12 5 -2
v -12 6 -2
v -1 1 -2
v -1 5 -2
v -1 6 -2
v 1 1 -2
v 1 5 -2
v 1 6 -2
v 5 1 -2
v 5 2 -2
v 5 4 -2
v 5 6 -2
v 7 2 -2
v 7 4 -2
v 13 1 -2
v 13 6 -2
v -20 0 -4
v -20 1 -4
v -19 6 -4
v -19 7 -4
v -11 0 -4
v -11 1 -4
v -11 6 -4
v -11 7 -4
v -3 0 -4
v -3 1 -4
v -3 6 -4
v -3 7 -4
v 13 0 -4
v 13 1 -4
v 13 6 -4
v 13 7 -4
v -20 0 7
v -11 0 7
v -3 0 7
v 13 0 7
v -20 0 -4
v -11 0 -4
v -3 0 -4
v 13 0 -4
v 5 4 5
v 7 4 5
v 5 4 -2
v 7 4 -2
v 6 5 6
v 7 5 6
v 8 5 6
v 9 5 6
v 10 5 6
v 11 5 6
v 12 5 6
v 13 5 6
v 6 5 5
v 7 5 5
v 8 5 5
v 9 5 5
v 10 5 5
v 11 5 5
v 12 5 5
v 13 5 5
v -19 6 7
v -11 6 7
v -3 6 7
v 13 6 7
v 6 6 6
v 7 6 6
v 8 6 6
v 9 6 6
v 10 6 6
v 11 6 6
v 12 6 6
v 13 6 6
v -18 6 5
v -16 6 5
v -14 6 5
v -12 6 5
v -1 6 5
v 1 6 5
v 5 6 5
v 6 6 5
v 7 6 5
v 8 6 5
v 9 6 5
v 10 6 5
v 11 6 5
v 12 6 5
v -18 6 3
v -16 6 3
v -14 6 3
v -12 6 3
v -1 6 3
v 1 6 3
v -18 6 -0
v -16 6 -0
v -14 6 -0
v -12 6 -0
v -1 6 -0
v 1 6 -0
v -18 6 -2
v -16 6 -2
v -14 6 -2
v -12 6 -2
v -1 6 -2
v 1 6 -2
v 5 6 -2
v 13 6 -2
v -19 6 -4
v -11 6 -4
v -3 6 -4
v 13 6 -4
v -20 1 7
v -11 1 7
v -3 1 7
v 13 1 7
v -18 1 5
v -16 1 5
v -14 1 5
v -12 1 5
v -1 1 5
v 1 1 5
v 5 1 5
v 13 1 5
v -18 1 3
v -16 1 3
v -14 1 3
v -12 1 3
v -1 1 3
v 1 1 3
v -18 1 -0
v -16 1 -0
v -14 1 -0
v -12 1 -0
v -1 1 -0
v 1 1 -0
v -18 1 -2
v -16 1 -2
v -14 1 -2
v -12 1 -2
v -1 1 -2
v 1 1 -2
v 5 1 -2
v 13 1 -2
v -20 1 -4
v -11 1 -4
v -3 1 -4
v 13 1 -4
v 5 2 5
v 7 2 5
v 5 2 -2
v 7 2 -2
v -19 7 7
v -11 7 7
v -3 7 7
v 13 7 7
v -19 7 -4
v -11 7 -4
v -3 7 -4
v 13 7 -4

# faces
f 3/1/1 2/1/1 1/1/1
f 4/1/1 2/1/1 3/1/1
f 7/1/1 6/1/1 5/1/1
f 8/1/1 6/1/1 7/1/1
f 13/1/1 10/1/1 9/1/1
f 14/1/1 10/1/1 13/1/1
f 15/1/1 12/1/1 11/1/1
f 16/1/1 12/1/1 15/1/1
f 17/3/1 14/3/1 13/3/1
f 18/3/1 14/3/1 17/3/1
f 19/3/1 16/3/1 15/3/1
f 20/3/1 16/3/1 19/3/1
f 25/1/1 22/1/1 21/1/1
f 26/1/1 22/1/1 25/1/1
f 27/1/1 24/1/1 23/1/1
f 28/1/1 24/1/1 27/1/1
f 29/3/1 26/3/1 25/3/1
f 30/3/1 26/3/1 29/3/1
f 31/3/1 28/3/1 27/3/1
f 32/3/1 28/3/1 31/3/1
f 35/1/1 34/1/1 33/1/1
f 36/1/1 34/1/1 35/1/1
f 39/1/1 38/1/1 37/1/1
f 40/1/1 38/1/1 39/1/1
f 45/1/1 42/1/1 41/1/1
f 46/1/1 42/1/1 45/1/1
f 47/1/1 44/1/1 43/1/1
f 48/1/1 44/1/1 47/1/1
f 49/3/1 46/3/1 45/3/1
f 50/3/1 46/3/1 49/3/1
f 51/3/1 48/3/1 47/3/1
f 52/3/1 48/3/1 51/3/1
f 55/1/1 54/1/1 53/1/1
f 56/1/1 54/1/1 55/1/1
f 59/1/1 58/1/1 57/1/1
f 60/1/1 58/1/1 59/1/1
f 63/2/1 62/2/1 61/2/1
f 64/2/1 62/2/1 63/2/1
f 67/1/1 66/1/1 65/1/1
f 68/1/1 66/1/1 67/1/1
f 71/2/1 70/2/1 69/2/1
f 72/2/1 70/2/1 71/2/1
f 75/2/1 74/2/1 73/2/1
f 76/2/1 74/2/1 75/2/1
f 79/2/1 78/2/1 77/2/1
f 80/2/1 78/2/1 79/2/1
f 81/1/2 82/1/2 85/1/2
f 85/1/2 82/1/2 86/1/2
f 83/1/2 84/1/2 87/1/2
f 87/1/2 84/1/2 88/1/2
f 85/3/2 86/3/2 89/3/2
f 89/3/2 86/3/2 90/3/2
f 87/3/2 88/3/2 91/3/2
f 91/3/2 88/3/2 92/3/2
f 93/1/2 94/1/2 97/1/2
f 97/1/2 94/1/2 98/1/2
f 95/1/2 96/1/2 99/1/2
f 99/1/2 96/1/2 100/1/2
f 97/3/2 98/3/2 101/3/2
f 101/3/2 98/3/2 102/3/2
f 99/3/2 100/3/2 103/3/2
f 103/3/2 100/3/2 104/3/2
f 105/1/2 106/1/2 107/1/2
f 107/1/2 106/1/2 108/1/2
f 109/1/2 110/1/2 111/1/2
f 111/1/2 110/1/2 112/1/2
f 113/1/2 114/1/2 117/1/2
f 117/1/2 114/1/2 118/1/2
f 115/1/2 116/1/2 119/1/2
f 119/1/2 116/1/2 120/1/2
f 117/3/2 118/3/2 121/3/2
f 121/3/2 118/3/2 122/3/2
f 119/3/2 120/3/2 123/3/2
f 123/3/2 120/3/2 124/3/2
f 125/2/2 126/2/2 127/2/2
f 127/2/2 126/2/2 128/2/2
f 129/2/2 130/2/2 131/2/2
f 131/2/2 130/2/2 132/2/2
f 133/2/2 134/2/2 135/2/2
f 135/2/2 134/2/2 136/2/2
f 137/1/2 138/1/2 139/1/2
f 139/1/2 138/1/2 140/1/2
f 140/1/2 138/1/2 141/1/2
f 141/1/2 138/1/2 142/1/2
f 140/1/2 141/1/2 144/1/2
f 143/2/2 144/2/2 146/2/2
f 144/1/2 141/1/2 147/1/2
f 146/2/2 144/2/2 147/2/2
f 147/1/2 141/1/2 148/1/2
f 145/1/2 146/1/2 150/1/2
f 148/1/2 149/1/2 150/1/2
f 147/1/2 148/1/2 150/1/2
f 146/1/2 147/1/2 150/1/2
f 150/1/2 149/1/2 151/1/2
f 156/1/3 153/1/3 152/1/3
f 157/1/3 153/1/3 156/1/3
f 158/1/3 155/1/3 154/1/3
f 159/1/3 155/1/3 158/1/3
f 164/1/3 161/1/3 160/1/3
f 165/1/3 161/1/3 164/1/3
f 166/1/3 163/1/3 162/1/3
f 167/1/3 163/1/3 166/1/3
f 170/2/3 169/2/3 168/2/3
f 171/2/3 169/2/3 170/2/3
f 174/2/3 173/2/3 172/2/3
f 175/2/3 173/2/3 174/2/3
f 178/2/3 177/2/3 176/2/3
f 179/2/3 177/2/3 178/2/3
f 182/2/3 181/2/3 180/2/3
f 183/2/3 181/2/3 182/2/3
f 187/1/3 185/1/3 184/1/3
f 188/3/3 186/3/3 185/3/3
f 188/1/3 185/1/3 187/1/3
f 189/3/3 186/3/3 188/3/3
f 193/1/3 191/1/3 190/1/3
f 194/3/3 192/3/3 191/3/3
f 194/1/3 191/1/3 193/1/3
f 195/3/3 192/3/3 194/3/3
f 199/1/3 197/1/3 196/1/3
f 200/3/3 198/3/3 197/3/3
f 200/1/3 197/1/3 199/1/3
f 201/3/3 198/3/3 200/3/3
f 206/1/3 205/1/3 204/1/3
f 207/1/3 205/1/3 206/1/3
f 208/1/3 203/1/3 202/1/3
f 209/1/3 206/1/3 204/1/3
f 210/1/3 206/1/3 209/1/3
f 212/1/3 209/1/3 208/1/3
f 212/1/3 211/1/3 210/1/3
f 212/1/3 210/1/3 209/1/3
f 213/1/3 211/1/3 212/1/3
f 214/1/3 212/1/3 208/1/3
f 216/1/3 214/1/3 208/1/3
f 216/1/3 215/1/3 214/1/3
f 217/1/3 215/1/3 216/1/3
f 218/1/3 216/1/3 208/1/3
f 220/1/3 218/1/3 208/1/3
f 220/1/3 219/1/3 218/1/3
f 221/1/3 219/1/3 220/1/3
f 222/1/3 208/1/3 202/1/3
f 222/1/3 220/1/3 208/1/3
f 223/1/3 220/1/3 222/1/3
f 227/1/3 225/1/3 224/1/3
f 228/3/3 226/3/3 225/3/3
f 228/1/3 225/1/3 227/1/3
f 229/3/3 226/3/3 228/3/3
f 233/1/3 231/1/3 230/1/3
f 234/3/3 232/3/3 231/3/3
f 234/1/3 231/1/3 233/1/3
f 235/3/3 232/3/3 234/3/3
f 239/1/3 237/1/3 236/1/3
f 240/3/3 238/3/3 237/3/3
f 240/1/3 237/1/3 239/1/3
f 241/3/3 238/3/3 240/3/3
f 242/1/4 243/1/4 245/1/4
f 243/3/4 244/3/4 246/3/4
f 245/1/4 243/1/4 246/1/4
f 246/3/4 244/3/4 247/3/4
f 248/1/4 249/1/4 251/1/4
f 249/3/4 250/3/4 252/3/4
f 251/1/4 249/1/4 252/1/4
f 252/3/4 250/3/4 253/3/4
f 254/1/4 255/1/4 257/1/4
f 255/3/4 256/3/4 258/3/4
f 257/1/4 255/1/4 258/1/4
f 258/3/4 256/3/4 259/3/4
f 260/1/4 261/1/4 263/1/4
f 261/3/4 262/3/4 264/3/4
f 263/1/4 261/1/4 264/1/4
f 264/3/4 262/3/4 265/3/4
f 266/1/4 267/1/4 269/1/4
f 267/3/4 268/3/4 270/3/4
f 269/1/4 267/1/4 270/1/4
f 270/3/4 268/3/4 271/3/4
f 272/1/4 273/1/4 275/1/4
f 273/3/4 274/3/4 276/3/4
f 275/1/4 273/1/4 276/1/4
f 276/3/4 274/3/4 277/3/4
f 278/1/4 279/1/4 282/1/4
f 280/1/4 281/1/4 283/1/4
f 278/1/4 282/1/4 284/1/4
f 282/1/4 283/1/4 284/1/4
f 283/1/4 281/1/4 285/1/4
f 284/1/4 283/1/4 285/1/4
f 286/1/4 287/1/4 290/1/4
f 290/1/4 287/1/4 291/1/4
f 288/1/4 289/1/4 292/1/4
f 292/1/4 289/1/4 293/1/4
f 294/1/4 295/1/4 298/1/4
f 298/1/4 295/1/4 299/1/4
f 296/1/4 297/1/4 300/1/4
f 300/1/4 297/1/4 301/1/4
f 306/1/5 303/1/5 302/1/5
f 307/1/5 303/1/5 306/1/5
f 308/1/5 305/1/5 304/1/5
f 309/1/5 305/1/5 308/1/5
f 312/1/5 311/1/5 310/1/5
f 313/1/5 311/1/5 312/1/5
f 322/2/5 315/2/5 314/2/5
f 323/2/5 315/2/5 322/2/5
f 324/2/5 317/2/5 316/2/5
f 325/2/5 317/2/5 324/2/5
f 326/2/5 319/2/5 318/2/5
f 327/2/5 319/2/5 326/2/5
f 328/2/5 321/2/5 320/2/5
f 329/2/5 321/2/5 328/2/5
f 334/1/5 333/1/5 332/1/5
f 335/1/5 333/1/5 334/1/5
f 336/1/5 333/1/5 335/1/5
f 337/1/5 333/1/5 336/1/5
f 338/1/5 333/1/5 337/1/5
f 339/1/5 333/1/5 338/1/5
f 340/1/5 333/1/5 339/1/5
f 341/1/5 333/1/5 340/1/5
f 342/1/5 331/1/5 330/1/5
f 343/1/5 331/1/5 342/1/5
f 344/1/5 331/1/5 343/1/5
f 345/1/5 331/1/5 344/1/5
f 346/1/5 334/1/5 332/1/5
f 347/1/5 334/1/5 346/1/5
f 348/1/5 334/1/5 347/1/5
f 349/1/5 334/1/5 348/1/5
f 350/1/5 336/1/5 335/1/5
f 351/1/5 336/1/5 350/1/5
f 352/1/5 338/1/5 337/1/5
f 353/1/5 338/1/5 352/1/5
f 354/1/5 340/1/5 339/1/5
f 355/1/5 340/1/5 354/1/5
f 356/1/5 342/1/5 330/1/5
f 357/1/5 344/1/5 343/1/5
f 358/1/5 344/1/5 357/1/5
f 359/1/5 331/1/5 345/1/5
f 360/1/5 346/1/5 332/1/5
f 361/1/5 348/1/5 347/1/5
f 362/1/5 358/1/5 357/1/5
f 362/1/5 356/1/5 330/1/5
f 362/1/5 359/1/5 358/1/5
f 362/1/5 357/1/5 356/1/5
f 363/1/5 359/1/5 362/1/5
f 364/1/5 359/1/5 363/1/5
f 365/1/5 331/1/5 359/1/5
f 365/1/5 359/1/5 364/1/5
f 366/1/5 361/1/5 360/1/5
f 366/1/5 360/1/5 332/1/5
f 367/1/5 348/1/5 361/1/5
f 367/1/5 361/1/5 366/1/5
f 368/1/5 362/1/5 330/1/5
f 369/1/5 364/1/5 363/1/5
f 370/1/5 364/1/5 369/1/5
f 371/1/5 331/1/5 365/1/5
f 372/1/5 366/1/5 332/1/5
f 373/1/5 348/1/5 367/1/5
f 374/1/5 348/1/5 373/1/5
f 376/1/5 370/1/5 369/1/5
f 376/1/5 371/1/5 370/1/5
f 376/1/5 368/1/5 330/1/5
f 376/1/5 369/1/5 368/1/5
f 377/1/5 331/1/5 371/1/5
f 377/1/5 371/1/5 376/1/5
f 378/1/5 375/1/5 374/1/5
f 378/1/5 374/1/5 373/1/5
f 378/1/5 372/1/5 332/1/5
f 378/1/5 373/1/5 372/1/5
f 379/1/5 375/1/5 378/1/5
f 380/1/6 381/1/6 384/1/6
f 384/1/6 381/1/6 385/1/6
f 385/1/6 381/1/6 386/1/6
f 386/1/6 381/1/6 387/1/6
f 382/1/6 383/1/6 388/1/6
f 388/1/6 383/1/6 389/1/6
f 389/1/6 383/1/6 390/1/6
f 390/1/6 383/1/6 391/1/6
f 380/1/6 384/1/6 392/1/6
f 385/1/6 386/1/6 393/1/6
f 393/1/6 386/1/6 394/1/6
f 387/1/6 381/1/6 395/1/6
f 382/1/6 388/1/6 396/1/6
f 389/1/6 390/1/6 397/1/6
f 393/1/6 394/1/6 398/1/6
f 380/1/6 392/1/6 398/1/6
f 394/1/6 395/1/6 398/1/6
f 392/1/6 393/1/6 398/1/6
f 398/1/6 395/1/6 399/1/6
f 399/1/6 395/1/6 400/1/6
f 395/1/6 381/1/6 401/1/6
f 400/1/6 395/1/6 401/1/6
f 396/1/6 397/1/6 402/1/6
f 382/1/6 396/1/6 402/1/6
f 397/1/6 390/1/6 403/1/6
f 402/1/6 397/1/6 403/1/6
f 380/1/6 398/1/6 404/1/6
f 399/1/6 400/1/6 405/1/6
f 405/1/6 400/1/6 406/1/6
f 401/1/6 381/1/6 407/1/6
f 382/1/6 402/1/6 408/1/6
f 403/1/6 390/1/6 409/1/6
f 409/1/6 390/1/6 410/1/6
f 405/1/6 406/1/6 412/1/6
f 406/1/6 407/1/6 412/1/6
f 380/1/6 404/1/6 412/1/6
f 404/1/6 405/1/6 412/1/6
f 407/1/6 381/1/6 413/1/6
f 412/1/6 407/1/6 413/1/6
f 410/1/6 411/1/6 414/1/6
f 382/1/6 408/1/6 414/1/6
f 409/1/6 410/1/6 414/1/6
f 408/1/6 409/1/6 414/1/6
f 414/1/6 411/1/6 415/1/6
f 416/1/6 417/1/6 418/1/6
f 418/1/6 417/1/6 419/1/6
f 420/1/6 421/1/6 424/1/6
f 424/1/6 421/1/6 425/1/6
f 422/1/6 423/1/6 426/1/6
f 426/1/6 423/1/6 427/1/6
