# MagicaVoxel @ Ephtracy

# material
mtllib Basketball.mtl
usemtl palette

# normals
vn -1 0 0
vn 1 0 0
vn 0 0 1
vn 0 0 -1
vn 0 -1 0
vn 0 1 0

# texcoords
vt 0.00585938 0.5
vt 0.662109 0.5
vt 0.845703 0.5

# verts
v -6 0 -1
v -6 0 -2
v -6 7 -1
v -6 7 -2
v -4 6 1
v -4 6 -1
v -4 6 -2
v -4 6 -4
v -4 7 -1
v -4 7 -2
v -4 10 1
v -4 10 -4
v -1 7 -1
v -1 7 -2
v -1 8 -1
v -1 8 -2
v -5 0 -1
v -5 0 -2
v -5 6 -1
v -5 6 -2
v -3 6 1
v -3 6 -4
v -3 7 -0
v -3 7 -3
v -3 8 -0
v -3 8 -3
v -3 10 1
v -3 10 -4
v -2 7 -1
v -2 7 -2
v -2 8 -1
v -2 8 -2
v 0 7 -0
v 0 7 -3
v 0 8 -0
v 0 8 -3
v -4 6 1
v -4 10 1
v -3 6 1
v -3 10 1
v -3 7 -0
v -3 8 -0
v 0 7 -0
v 0 8 -0
v -6 0 -1
v -6 7 -1
v -5 0 -1
v -5 6 -1
v -4 6 -1
v -4 7 -1
v -2 7 -2
v -2 8 -2
v -1 7 -2
v -1 8 -2
v -2 7 -1
v -2 8 -1
v -1 7 -1
v -1 8 -1
v -6 0 -2
v -6 7 -2
v -5 0 -2
v -5 6 -2
v -4 6 -2
v -4 7 -2
v -3 7 -3
v -3 8 -3
v 0 7 -3
v 0 8 -3
v -4 6 -4
v -4 10 -4
v -3 6 -4
v -3 10 -4
v -6 0 -1
v -5 0 -1
v -6 0 -2
v -5 0 -2
v -4 6 1
v -3 6 1
v -5 6 -1
v -4 6 -1
v -5 6 -2
v -4 6 -2
v -4 6 -4
v -3 6 -4
v -3 7 -0
v 0 7 -0
v -2 7 -1
v -1 7 -1
v -2 7 -2
v -1 7 -2
v -3 7 -3
v 0 7 -3
v -6 7 -1
v -4 7 -1
v -6 7 -2
v -4 7 -2
v -3 8 -0
v 0 8 -0
v -2 8 -1
v -1 8 -1
v -2 8 -2
v -1 8 -2
v -3 8 -3
v 0 8 -3
v -4 10 1
v -3 10 1
v -4 10 -4
v -3 10 -4

# faces
f 3/2/1 2/2/1 1/2/1
f 4/2/1 2/2/1 3/2/1
f 9/1/1 6/1/1 5/1/1
f 10/1/1 8/1/1 7/1/1
f 11/1/1 9/1/1 5/1/1
f 11/1/1 10/1/1 9/1/1
f 12/1/1 8/1/1 10/1/1
f 12/1/1 10/1/1 11/1/1
f 15/3/1 14/3/1 13/3/1
f 16/3/1 14/3/1 15/3/1
f 17/2/2 18/2/2 19/2/2
f 19/2/2 18/2/2 20/2/2
f 21/1/2 22/1/2 23/1/2
f 23/1/2 22/1/2 24/1/2
f 21/1/2 23/1/2 25/1/2
f 24/1/2 22/1/2 26/1/2
f 21/1/2 25/1/2 27/1/2
f 25/1/2 26/1/2 27/1/2
f 26/1/2 22/1/2 28/1/2
f 27/1/2 26/1/2 28/1/2
f 29/3/2 30/3/2 31/3/2
f 31/3/2 30/3/2 32/3/2
f 33/3/2 34/3/2 35/3/2
f 35/3/2 34/3/2 36/3/2
f 39/1/3 38/1/3 37/1/3
f 40/1/3 38/1/3 39/1/3
f 43/3/3 42/3/3 41/3/3
f 44/3/3 42/3/3 43/3/3
f 47/2/3 46/2/3 45/2/3
f 48/2/3 46/2/3 47/2/3
f 49/2/3 46/2/3 48/2/3
f 50/2/3 46/2/3 49/2/3
f 53/3/3 52/3/3 51/3/3
f 54/3/3 52/3/3 53/3/3
f 55/3/4 56/3/4 57/3/4
f 57/3/4 56/3/4 58/3/4
f 59/2/4 60/2/4 61/2/4
f 61/2/4 60/2/4 62/2/4
f 62/2/4 60/2/4 63/2/4
f 63/2/4 60/2/4 64/2/4
f 65/3/4 66/3/4 67/3/4
f 67/3/4 66/3/4 68/3/4
f 69/1/4 70/1/4 71/1/4
f 71/1/4 70/1/4 72/1/4
f 75/2/5 74/2/5 73/2/5
f 76/2/5 74/2/5 75/2/5
f 80/1/5 78/1/5 77/1/5
f 81/2/5 80/2/5 79/2/5
f 82/1/5 78/1/5 80/1/5
f 82/2/5 80/2/5 81/2/5
f 83/1/5 78/1/5 82/1/5
f 84/1/5 78/1/5 83/1/5
f 87/3/5 86/3/5 85/3/5
f 88/3/5 86/3/5 87/3/5
f 89/3/5 87/3/5 85/3/5
f 90/3/5 86/3/5 88/3/5
f 91/3/5 89/3/5 85/3/5
f 91/3/5 90/3/5 89/3/5
f 92/3/5 86/3/5 90/3/5
f 92/3/5 90/3/5 91/3/5
f 93/2/6 94/2/6 95/2/6
f 95/2/6 94/2/6 96/2/6
f 97/3/6 98/3/6 99/3/6
f 99/3/6 98/3/6 100/3/6
f 97/3/6 99/3/6 101/3/6
f 100/3/6 98/3/6 102/3/6
f 97/3/6 101/3/6 103/3/6
f 101/3/6 102/3/6 103/3/6
f 102/3/6 98/3/6 104/3/6
f 103/3/6 102/3/6 104/3/6
f 105/1/6 106/1/6 107/1/6
f 107/1/6 106/1/6 108/1/6
